<?xml version="1.0" encoding="UTF-8"?>
<!-- Generator: Adobe Illustrator 19.2.1, SVG Export Plug-In . SVG Version: 6.00 Build 0)  -->
<svg xmlns="http://www.w3.org/2000/svg" xmlns:xlink="http://www.w3.org/1999/xlink" version="1.1" id="Capa_1" x="0px" y="0px" viewBox="0 0 1012.9 289.4" style="enable-background:new 0 0 1012.9 289.4;" xml:space="preserve">
<style type="text/css">
	.st0{enable-background:new    ;}
	.st1{fill:#000000;}
</style>
<g>
	
		<rect x="5.3" y="239.1" transform="matrix(-1 1.056172e-010 -1.056172e-010 -1 504.0466 525.2597)" class="st1" width="493.5" height="47"></rect>
	<g class="st0">
		<path class="st1" d="M161.6,118.4v47.4l-34,25.3H5.3v-34.8h10.8V37.7H5.3V2.9h122.3l34,25.3v47.4l-19,21.4L161.6,118.4z     M109.6,79.7l8.4-9.4V45.2l-10-7.5H63.2v42H109.6z M63.2,114.4v42h44.7l10-7.5v-25.1l-8.4-9.4H63.2z"></path>
		<path class="st1" d="M435.7,37.7L486,156.4h12.3v34.8h-74.1v-34.8h13.2l-8-18.9h-54.7l-8.2,18.9h13v34.8h-74.1v-34.8h12.3    l51.4-118.7h-9.2V2.9h84v34.7H435.7z M384.2,115.4H420l-17.7-41.8L384.2,115.4z"></path>
		<path class="st1" d="M700,156.1h46.3v-14.7h43.7v49.5H642.1v-34.8h10.9V37.4h-13.3V2.7h73.6v34.7H700V156.1z"></path>
		<path class="st1" d="M994.2,156.1h13.3v34.8h-73.6v-34.8h13.3V37.4h-13.3V2.7h73.6v34.7h-13.3V156.1z"></path>
	</g>
	<g>
		<g>
			<path class="st1" d="M673.4,265.4H654v13.3h22.7v7.2h-32.1v-46.8h32v7.2H654v11.8h19.4V265.4z"></path>
			<path class="st1" d="M724.4,273.8c0-1.8-0.6-3.3-1.9-4.3c-1.3-1.1-3.5-2.1-6.7-3.1c-5.6-1.6-9.8-3.5-12.6-5.7     c-2.9-2.2-4.3-5.2-4.3-9.1s1.6-7,4.9-9.4c3.3-2.4,7.4-3.7,12.5-3.7c5.1,0,9.3,1.4,12.6,4.1c3.2,2.7,4.8,6.1,4.7,10.1l-0.1,0.2     h-9.1c0-2.2-0.7-3.9-2.2-5.3c-1.4-1.3-3.5-2-6.1-2c-2.5,0-4.5,0.6-5.8,1.7c-1.4,1.1-2.1,2.5-2.1,4.3c0,1.6,0.7,2.9,2.2,3.9     c1.5,1,4,2.1,7.6,3.2c5.2,1.4,9.1,3.3,11.7,5.7c2.7,2.4,4,5.4,4,9.3c0,4-1.6,7.2-4.7,9.5c-3.2,2.3-7.3,3.5-12.5,3.5     c-5.1,0-9.6-1.3-13.3-3.9c-3.8-2.6-5.6-6.3-5.5-11l0.1-0.2h9.1c0,2.8,0.9,4.8,2.6,6.1c1.7,1.3,4.1,1.9,7.1,1.9     c2.5,0,4.5-0.5,5.9-1.6C723.7,277,724.4,275.5,724.4,273.8z"></path>
			<path class="st1" d="M790,246.4h-13.2V286h-9.4v-39.6h-13.2v-7.2H790V246.4z"></path>
			<path class="st1" d="M849,239.2v31.1c0,5.3-1.7,9.3-5.2,12.1c-3.5,2.9-8,4.3-13.6,4.3c-5.6,0-10.1-1.4-13.6-4.3     c-3.4-2.8-5.2-6.9-5.2-12.1v-31.1h9.4v31c0,3.1,0.8,5.4,2.5,6.9c1.7,1.5,3.9,2.3,6.8,2.3c2.9,0,5.2-0.8,6.9-2.3     c1.7-1.5,2.5-3.8,2.5-6.9v-31H849z"></path>
			<path class="st1" d="M874,286v-46.8H890c5.7,0,10.4,1.8,14.2,5.5c3.7,3.7,5.6,8.3,5.6,14.1v7.7c0,5.7-1.9,10.4-5.6,14.1     c-3.7,3.6-8.4,5.4-14.2,5.4H874z M883.3,246.4v32.4h6.2c3.4,0,6-1.1,7.9-3.4c1.9-2.3,2.9-5.2,2.9-8.9v-7.8c0-3.6-1-6.6-2.9-8.8     c-1.9-2.3-4.6-3.4-7.9-3.4H883.3z"></path>
			<path class="st1" d="M943.8,286h-9.4v-46.8h9.4V286z"></path>
			<path class="st1" d="M1007.6,266.8c0,5.7-1.8,10.5-5.4,14.2c-3.6,3.7-8.4,5.6-14.2,5.6c-5.8,0-10.5-1.9-14-5.6     c-3.6-3.8-5.4-8.5-5.4-14.2v-8.4c0-5.7,1.8-10.5,5.4-14.2c3.6-3.8,8.3-5.6,14-5.6c5.8,0,10.5,1.9,14.2,5.6     c3.6,3.8,5.5,8.5,5.5,14.2V266.8z M998.2,258.3c0-3.7-0.9-6.7-2.7-9c-1.8-2.3-4.3-3.5-7.5-3.5c-3.2,0-5.7,1.2-7.4,3.5     c-1.8,2.3-2.6,5.3-2.6,9v8.5c0,3.7,0.9,6.7,2.7,9.1c1.8,2.3,4.3,3.5,7.4,3.5c3.2,0,5.7-1.2,7.5-3.5c1.8-2.3,2.7-5.4,2.7-9.1     V258.3z"></path>
		</g>
	</g>
</g>
</svg>
